<svg xmlns="http://www.w3.org/2000/svg" width="40" height="40" fill="none">
    <path fill-rule="evenodd" clip-rule="evenodd"
        d="M14.167 4.87a2.5 2.5 0 0 0-2.5 2.5v25.26a2.5 2.5 0 0 0 2.5 2.5h11.666a2.5 2.5 0 0 0 2.5-2.5V7.37a2.5 2.5 0 0 0-2.5-2.5h-.139l-.406.974A1.667 1.667 0 0 1 23.75 6.87h-7.5c-.673 0-1.28-.405-1.538-1.026l-.406-.974h-.14Zm-5.834 2.5a5.833 5.833 0 0 1 5.834-5.833h11.666a5.833 5.833 0 0 1 5.834 5.833v25.26a5.833 5.833 0 0 1-5.834 5.834H14.167a5.833 5.833 0 0 1-5.834-5.834V7.37Z"
        fill="#FF5A30" />
</svg>