<svg xmlns="http://www.w3.org/2000/svg" width="24" height="24" fill="none">
    <path fill-rule="evenodd" clip-rule="evenodd"
        d="M21.39 4.114a3.007 3.007 0 0 1 2.116 2.115c.514 1.878.494 5.793.494 5.793s0 3.894-.494 5.772a3.007 3.007 0 0 1-2.116 2.116c-1.878.494-9.39.494-9.39.494s-7.493 0-9.39-.514a3.008 3.008 0 0 1-2.116-2.116C0 15.916 0 12.002 0 12.002s0-3.895.494-5.773A3.068 3.068 0 0 1 2.61 4.094C4.488 3.6 12 3.6 12 3.6s7.513 0 9.391.514Zm-5.535 7.888L9.608 15.6V8.404l6.247 3.598Z"
        fill="#fff" opacity=".6" />
</svg>